# xmcd
#
# Track frame offsets:
#	150
#	12582
#	26812
#	42430
#	54349
#	65613
#	76974
#	87316
#	100553
#	112056
#
# Disc length: 1688 seconds
#
# Revision: 0
# Processed by: cddbd v1.5.1PL2 Copyright (c) Steve Scherf et al.
# Submitted via: dBpowerAMP V4.0
#
DISCID=7e06960a
DTITLE=Kirk Hansard - This world of mine
DYEAR=1900
DGENRE=Country
TTITLE0=The road
TTITLE1=Serios drinking
TTITLE2=Trough this world of mine
TTITLE3=Nudist colony
TTITLE4=If this ain't heaven
TTITLE5=I'll be there
TTITLE6=Adults only
TTITLE7=A thousand honky tonks ago
TTITLE8=Make it short make it sweet
TTITLE9=What have you done
EXTD=
EXTT0=
EXTT1=
EXTT2=
EXTT3=
EXTT4=
EXTT5=
EXTT6=
EXTT7=
EXTT8=
EXTT9=
PLAYORDER=
